<svg xmlns="http://www.w3.org/2000/svg" xmlns:xlink="http://www.w3.org/1999/xlink" aria-hidden="true" role="img" class="iconify iconify--logos" width="31.88" height="32" preserveAspectRatio="xMidYMid meet" viewBox="0 0 256 257"><defs><linearGradient id="IconifyId1813088fe1fbc01fb466" x1="-.828%" x2="57.586%" y1="7.652%" y2="78.411%"><stop offset="0%" stop-color="#41D1FF"></stop><stop offset="100%" stop-color="#BD34FE"></stop></linearGradient><linearGradient id="IconifyId1813088fe1fbc01fb467" x1="43.376%" x2="50.316%" y1="2.242%" y2="89.03%"><stop offset="0%" stop-color="#FFBD4F"></stop><stop offset="100%" stop-color="#FF980E"></stop></linearGradient></defs><path fill="url(#IconifyId1813088fe1fbc01fb466)" d="M255.153 37.938L134.897 252.976c-2.582 4.616-9.299 4.702-12.004.147L.875 37.938c-3.247-5.466 1.452-12.408 7.792-11.475l120.385 17.622a7.01 7.01 0 0 0 2.075-.003L247.384 26.46c6.333-.926 11.023 6.024 7.769 11.478Z"></path><path fill="url(#IconifyId1813088fe1fbc01fb467)" d="M185.432.063L96.44 14.141a7.005 7.005 0 0 0-5.894 5.158L56.606 131.402c-1.32 4.872 3.981 8.945 8.414 6.457l24.677-13.847a7.004 7.004 0 0 1 10.303 4.725l15.255 73.341c1.522 6.91 11.29 7.058 13.009.192l32.038-128.715a7.003 7.003 0 0 1 5.132-5.182l23.468-5.474c5.563-1.297 4.097-9.368-1.47-8.836Z"></path></svg>
